<mxfile host="app.diagrams.net" modified="2023-04-15T19:18:44.345Z" agent="Mozilla/5.0 (Windows NT 10.0; Win64; x64) AppleWebKit/537.36 (KHTML, like Gecko) Chrome/111.0.0.0 Safari/537.36 OPR/97.0.0.0" etag="2boQFdO5_feHn_m_LbA1" version="21.1.8" type="device">
  <diagram id="6a731a19-8d31-9384-78a2-239565b7b9f0" name="Page-1">
    <mxGraphModel dx="1634" dy="766" grid="1" gridSize="10" guides="1" tooltips="1" connect="1" arrows="1" fold="1" page="1" pageScale="1" pageWidth="1169" pageHeight="827" background="none" math="0" shadow="0">
      <root>
        <mxCell id="0" />
        <mxCell id="1" parent="0" />
        <mxCell id="1351" value="&lt;b&gt;Eficiencia&lt;/b&gt;" style="ellipse;whiteSpace=wrap;html=1;shadow=0;fontFamily=Helvetica;fontSize=20;fontColor=#FFFFFF;align=center;strokeWidth=3;fillColor=#F08705;strokeColor=none;gradientColor=none;" parent="1" vertex="1">
          <mxGeometry x="461" y="110" width="120" height="120" as="geometry" />
        </mxCell>
        <mxCell id="1353" value="&lt;b&gt;Flexibilidad&lt;/b&gt;" style="ellipse;whiteSpace=wrap;html=1;shadow=0;fontFamily=Helvetica;fontSize=20;fontColor=#FFFFFF;align=center;strokeWidth=3;fillColor=#1699D3;strokeColor=none;" parent="1" vertex="1">
          <mxGeometry x="751" y="306.5" width="120" height="120" as="geometry" />
        </mxCell>
        <mxCell id="1356" value="Automatización" style="ellipse;whiteSpace=wrap;html=1;shadow=0;fontFamily=Helvetica;fontSize=20;fontColor=#FFFFFF;align=center;strokeWidth=3;fillColor=#E85642;strokeColor=none;fontStyle=1" parent="1" vertex="1">
          <mxGeometry x="443" y="472.25" width="161" height="150" as="geometry" />
        </mxCell>
        <mxCell id="1357" value="&lt;font style=&quot;font-size: 14px;&quot;&gt;&lt;b style=&quot;&quot;&gt;Capacidad&lt;/b&gt;&lt;/font&gt;" style="rounded=1;fillColor=#f5af58;strokeColor=none;strokeWidth=3;shadow=0;html=1;fontColor=#FFFFFF;" parent="1" vertex="1">
          <mxGeometry x="463.5" y="50" width="120" height="40" as="geometry" />
        </mxCell>
        <mxCell id="1360" style="endArrow=none;strokeWidth=6;strokeColor=#f08705;html=1;" parent="1" source="1515" target="1351" edge="1">
          <mxGeometry relative="1" as="geometry" />
        </mxCell>
        <mxCell id="1362" style="endArrow=none;strokeWidth=6;strokeColor=#1699D3;html=1;" parent="1" source="1515" target="1353" edge="1">
          <mxGeometry relative="1" as="geometry" />
        </mxCell>
        <mxCell id="1363" style="endArrow=none;strokeWidth=6;strokeColor=#736CA8;html=1;" parent="1" source="1515" target="1516" edge="1">
          <mxGeometry relative="1" as="geometry" />
        </mxCell>
        <mxCell id="1366" value="" style="edgeStyle=none;endArrow=none;strokeWidth=6;strokeColor=#E85642;html=1;" parent="1" source="1515" target="1356" edge="1">
          <mxGeometry x="-389" y="-223.5" width="100" height="100" as="geometry">
            <mxPoint x="-389" y="-123.5" as="sourcePoint" />
            <mxPoint x="-289" y="-223.5" as="targetPoint" />
          </mxGeometry>
        </mxCell>
        <mxCell id="1388" value="&lt;b&gt;Optimización&lt;/b&gt;" style="rounded=1;fillColor=#f5af58;strokeColor=none;strokeWidth=3;shadow=0;html=1;fontColor=#FFFFFF;" parent="1" vertex="1">
          <mxGeometry x="330" y="207.25" width="120" height="40" as="geometry" />
        </mxCell>
        <mxCell id="1389" value="&lt;b&gt;Productividad&lt;/b&gt;" style="rounded=1;fillColor=#f5af58;strokeColor=none;strokeWidth=3;shadow=0;html=1;fontColor=#FFFFFF;" parent="1" vertex="1">
          <mxGeometry x="328" y="120" width="120" height="40" as="geometry" />
        </mxCell>
        <mxCell id="1390" value="&lt;b&gt;Menores tiempos&lt;/b&gt;" style="rounded=1;fillColor=#f5af58;strokeColor=none;strokeWidth=3;shadow=0;html=1;fontColor=#FFFFFF;" parent="1" vertex="1">
          <mxGeometry x="599" y="120" width="120" height="40" as="geometry" />
        </mxCell>
        <mxCell id="1391" value="&lt;b&gt;Mayor utilización&lt;/b&gt;" style="rounded=1;fillColor=#f5af58;strokeColor=none;strokeWidth=3;shadow=0;html=1;fontColor=#FFFFFF;" parent="1" vertex="1">
          <mxGeometry x="594" y="207.25" width="120" height="40" as="geometry" />
        </mxCell>
        <mxCell id="1399" value="" style="edgeStyle=none;endArrow=none;strokeWidth=3;strokeColor=#F5AF58;html=1;" parent="1" source="1351" target="1357" edge="1">
          <mxGeometry x="-639" y="-132.75" width="100" height="100" as="geometry">
            <mxPoint x="-639" y="-32.75" as="sourcePoint" />
            <mxPoint x="-539" y="-132.75" as="targetPoint" />
          </mxGeometry>
        </mxCell>
        <mxCell id="1400" value="" style="edgeStyle=none;endArrow=none;strokeWidth=3;strokeColor=#F5AF58;html=1;" parent="1" source="1351" target="1388" edge="1">
          <mxGeometry x="-639" y="-132.75" width="100" height="100" as="geometry">
            <mxPoint x="-639" y="-32.75" as="sourcePoint" />
            <mxPoint x="-539" y="-132.75" as="targetPoint" />
          </mxGeometry>
        </mxCell>
        <mxCell id="1401" value="" style="edgeStyle=none;endArrow=none;strokeWidth=3;strokeColor=#F5AF58;html=1;" parent="1" source="1351" target="1389" edge="1">
          <mxGeometry x="-639" y="-132.75" width="100" height="100" as="geometry">
            <mxPoint x="-639" y="-32.75" as="sourcePoint" />
            <mxPoint x="-539" y="-132.75" as="targetPoint" />
          </mxGeometry>
        </mxCell>
        <mxCell id="1402" value="" style="edgeStyle=none;endArrow=none;strokeWidth=3;strokeColor=#F5AF58;html=1;" parent="1" source="1351" target="1390" edge="1">
          <mxGeometry x="-639" y="-132.75" width="100" height="100" as="geometry">
            <mxPoint x="-639" y="-32.75" as="sourcePoint" />
            <mxPoint x="-539" y="-132.75" as="targetPoint" />
          </mxGeometry>
        </mxCell>
        <mxCell id="1403" value="" style="edgeStyle=none;endArrow=none;strokeWidth=3;strokeColor=#F5AF58;html=1;" parent="1" source="1351" target="1391" edge="1">
          <mxGeometry x="-639" y="-132.75" width="100" height="100" as="geometry">
            <mxPoint x="-639" y="-32.75" as="sourcePoint" />
            <mxPoint x="-539" y="-132.75" as="targetPoint" />
          </mxGeometry>
        </mxCell>
        <mxCell id="1436" value="&lt;b&gt;Adaptabilidad&lt;/b&gt;" style="rounded=1;fillColor=#64BBE2;strokeColor=none;strokeWidth=3;shadow=0;html=1;fontColor=#FFFFFF;" parent="1" vertex="1">
          <mxGeometry x="661" y="436.5" width="120" height="40" as="geometry" />
        </mxCell>
        <mxCell id="1437" value="&lt;b&gt;Versatilidad&lt;/b&gt;" style="rounded=1;fillColor=#64BBE2;strokeColor=none;strokeWidth=3;shadow=0;html=1;fontColor=#FFFFFF;" parent="1" vertex="1">
          <mxGeometry x="650" y="260.75" width="120" height="40" as="geometry" />
        </mxCell>
        <mxCell id="1438" value="Personalización" style="rounded=1;fillColor=#64BBE2;strokeColor=none;strokeWidth=3;shadow=0;html=1;fontColor=#FFFFFF;fontStyle=1" parent="1" vertex="1">
          <mxGeometry x="900" y="346.5" width="120" height="40" as="geometry" />
        </mxCell>
        <mxCell id="1439" value="&lt;b&gt;Diversificación&amp;nbsp;&lt;/b&gt;" style="rounded=1;fillColor=#64BBE2;strokeColor=none;strokeWidth=3;shadow=0;html=1;fontColor=#FFFFFF;" parent="1" vertex="1">
          <mxGeometry x="830" y="260.75" width="120" height="40" as="geometry" />
        </mxCell>
        <mxCell id="1440" value="&lt;b&gt;Agilidad&amp;nbsp;&lt;/b&gt;" style="rounded=1;fillColor=#64BBE2;strokeColor=none;strokeWidth=3;shadow=0;html=1;fontColor=#FFFFFF;" parent="1" vertex="1">
          <mxGeometry x="830" y="436.5" width="120" height="40" as="geometry" />
        </mxCell>
        <mxCell id="1447" value="" style="edgeStyle=none;endArrow=none;strokeWidth=3;strokeColor=#64BBE2;html=1;" parent="1" source="1353" target="1436" edge="1">
          <mxGeometry x="-1209" y="-303.5" width="100" height="100" as="geometry">
            <mxPoint x="-1209" y="-203.5" as="sourcePoint" />
            <mxPoint x="-1109" y="-303.5" as="targetPoint" />
          </mxGeometry>
        </mxCell>
        <mxCell id="1448" value="" style="edgeStyle=none;endArrow=none;strokeWidth=3;strokeColor=#64BBE2;html=1;" parent="1" source="1353" target="1437" edge="1">
          <mxGeometry x="-1209" y="-303.5" width="100" height="100" as="geometry">
            <mxPoint x="-1209" y="-203.5" as="sourcePoint" />
            <mxPoint x="-1109" y="-303.5" as="targetPoint" />
          </mxGeometry>
        </mxCell>
        <mxCell id="1449" value="" style="edgeStyle=none;endArrow=none;strokeWidth=3;strokeColor=#64BBE2;html=1;" parent="1" source="1353" target="1438" edge="1">
          <mxGeometry x="-1209" y="-303.5" width="100" height="100" as="geometry">
            <mxPoint x="-1209" y="-203.5" as="sourcePoint" />
            <mxPoint x="-1109" y="-303.5" as="targetPoint" />
          </mxGeometry>
        </mxCell>
        <mxCell id="1450" value="" style="edgeStyle=none;endArrow=none;strokeWidth=3;strokeColor=#64BBE2;html=1;" parent="1" source="1353" target="1439" edge="1">
          <mxGeometry x="-1209" y="-303.5" width="100" height="100" as="geometry">
            <mxPoint x="-1209" y="-203.5" as="sourcePoint" />
            <mxPoint x="-1109" y="-303.5" as="targetPoint" />
          </mxGeometry>
        </mxCell>
        <mxCell id="1451" value="" style="edgeStyle=none;endArrow=none;strokeWidth=3;strokeColor=#64BBE2;html=1;" parent="1" source="1353" target="1440" edge="1">
          <mxGeometry x="-1209" y="-303.5" width="100" height="100" as="geometry">
            <mxPoint x="-1209" y="-203.5" as="sourcePoint" />
            <mxPoint x="-1109" y="-303.5" as="targetPoint" />
          </mxGeometry>
        </mxCell>
        <mxCell id="1490" value="&lt;b&gt;Seguridad&lt;/b&gt;" style="rounded=1;fillColor=#f08e81;strokeColor=none;strokeWidth=3;shadow=0;html=1;fontColor=#FFFFFF;" parent="1" vertex="1">
          <mxGeometry x="623" y="492.25" width="120" height="40" as="geometry" />
        </mxCell>
        <mxCell id="1498" value="&lt;b&gt;Trazabilidad&lt;/b&gt;" style="rounded=1;fillColor=#f08e81;strokeColor=none;strokeWidth=3;shadow=0;html=1;fontColor=#FFFFFF;" parent="1" vertex="1">
          <mxGeometry x="304" y="592.25" width="120" height="40" as="geometry" />
        </mxCell>
        <mxCell id="1499" value="&lt;b&gt;Gestión&lt;/b&gt;" style="rounded=1;fillColor=#f08e81;strokeColor=none;strokeWidth=3;shadow=0;html=1;fontColor=#FFFFFF;" parent="1" vertex="1">
          <mxGeometry x="463.5" y="652.25" width="120" height="40" as="geometry" />
        </mxCell>
        <mxCell id="1500" value="&lt;b&gt;Costos&lt;/b&gt;" style="rounded=1;fillColor=#f08e81;strokeColor=none;strokeWidth=3;shadow=0;html=1;fontColor=#FFFFFF;" parent="1" vertex="1">
          <mxGeometry x="630" y="592.25" width="120" height="40" as="geometry" />
        </mxCell>
        <mxCell id="1501" value="&lt;b&gt;Control&lt;/b&gt;" style="rounded=1;fillColor=#f08e81;strokeColor=none;strokeWidth=3;shadow=0;html=1;fontColor=#FFFFFF;" parent="1" vertex="1">
          <mxGeometry x="304" y="492.25" width="120" height="40" as="geometry" />
        </mxCell>
        <mxCell id="1502" value="" style="edgeStyle=none;endArrow=none;strokeWidth=3;strokeColor=#F08E81;html=1;" parent="1" source="1356" target="1501" edge="1">
          <mxGeometry x="86" y="-332.75" width="100" height="100" as="geometry">
            <mxPoint x="86" y="-232.75" as="sourcePoint" />
            <mxPoint x="186" y="-332.75" as="targetPoint" />
          </mxGeometry>
        </mxCell>
        <mxCell id="1503" value="" style="edgeStyle=none;endArrow=none;strokeWidth=3;strokeColor=#F08E81;html=1;" parent="1" source="1356" target="1490" edge="1">
          <mxGeometry x="86" y="-332.75" width="100" height="100" as="geometry">
            <mxPoint x="86" y="-232.75" as="sourcePoint" />
            <mxPoint x="186" y="-332.75" as="targetPoint" />
          </mxGeometry>
        </mxCell>
        <mxCell id="1511" value="" style="edgeStyle=none;endArrow=none;strokeWidth=3;strokeColor=#F08E81;html=1;" parent="1" source="1356" target="1498" edge="1">
          <mxGeometry x="86" y="-332.75" width="100" height="100" as="geometry">
            <mxPoint x="86" y="-232.75" as="sourcePoint" />
            <mxPoint x="186" y="-332.75" as="targetPoint" />
          </mxGeometry>
        </mxCell>
        <mxCell id="1512" value="" style="edgeStyle=none;endArrow=none;strokeWidth=3;strokeColor=#F08E81;html=1;" parent="1" source="1356" target="1499" edge="1">
          <mxGeometry x="86" y="-332.75" width="100" height="100" as="geometry">
            <mxPoint x="86" y="-232.75" as="sourcePoint" />
            <mxPoint x="186" y="-332.75" as="targetPoint" />
          </mxGeometry>
        </mxCell>
        <mxCell id="1513" value="" style="edgeStyle=none;endArrow=none;strokeWidth=3;strokeColor=#F08E81;html=1;" parent="1" source="1356" target="1500" edge="1">
          <mxGeometry x="86" y="-332.75" width="100" height="100" as="geometry">
            <mxPoint x="86" y="-232.75" as="sourcePoint" />
            <mxPoint x="186" y="-332.75" as="targetPoint" />
          </mxGeometry>
        </mxCell>
        <mxCell id="1515" value="FMS" style="ellipse;whiteSpace=wrap;html=1;shadow=0;fontFamily=Helvetica;fontSize=30;fontColor=#2F5B7C;align=center;strokeColor=#2F5B7C;strokeWidth=6;fillColor=#FFFFFF;fontStyle=1;gradientColor=none;" parent="1" vertex="1">
          <mxGeometry x="448" y="292.25" width="146" height="148.5" as="geometry" />
        </mxCell>
        <mxCell id="1516" value="&lt;b&gt;Calidad&amp;nbsp;&lt;/b&gt;" style="ellipse;whiteSpace=wrap;html=1;shadow=0;fontFamily=Helvetica;fontSize=20;fontColor=#FFFFFF;align=center;strokeWidth=3;fillColor=#736ca8;strokeColor=none;" parent="1" vertex="1">
          <mxGeometry x="210" y="306.5" width="120" height="120" as="geometry" />
        </mxCell>
        <mxCell id="1523" value="Monitoreo" style="rounded=1;fillColor=#a29dc5;strokeColor=none;strokeWidth=3;shadow=0;html=1;fontColor=#FFFFFF;fontStyle=1" parent="1" vertex="1">
          <mxGeometry x="70" y="346.5" width="120" height="40" as="geometry" />
        </mxCell>
        <mxCell id="1524" value="&lt;b&gt;Estandares&lt;/b&gt;" style="rounded=1;fillColor=#a29dc5;strokeColor=none;strokeWidth=3;shadow=0;html=1;fontColor=#FFFFFF;" parent="1" vertex="1">
          <mxGeometry x="120" y="432.25" width="120" height="40" as="geometry" />
        </mxCell>
        <mxCell id="1525" value="&lt;b&gt;Consistencia&lt;/b&gt;" style="rounded=1;fillColor=#a29dc5;strokeColor=none;strokeWidth=3;shadow=0;html=1;fontColor=#FFFFFF;" parent="1" vertex="1">
          <mxGeometry x="296" y="432.25" width="120" height="40" as="geometry" />
        </mxCell>
        <mxCell id="1526" value="&lt;b&gt;Menos&amp;nbsp;errores&lt;/b&gt;" style="rounded=1;fillColor=#a29dc5;strokeColor=none;strokeWidth=3;shadow=0;html=1;fontColor=#FFFFFF;" parent="1" vertex="1">
          <mxGeometry x="130" y="260.75" width="120" height="40" as="geometry" />
        </mxCell>
        <mxCell id="1527" value="&lt;b&gt;Mayor precisión&lt;/b&gt;" style="rounded=1;fillColor=#a29dc5;strokeColor=none;strokeWidth=3;shadow=0;html=1;fontColor=#FFFFFF;" parent="1" vertex="1">
          <mxGeometry x="296" y="260.75" width="120" height="40" as="geometry" />
        </mxCell>
        <mxCell id="1535" value="" style="edgeStyle=none;endArrow=none;strokeWidth=3;strokeColor=#A29DC5;html=1;" parent="1" source="1516" target="1523" edge="1">
          <mxGeometry x="-1918" y="-752.75" width="100" height="100" as="geometry">
            <mxPoint x="-1918" y="-652.75" as="sourcePoint" />
            <mxPoint x="-1818" y="-752.75" as="targetPoint" />
          </mxGeometry>
        </mxCell>
        <mxCell id="1536" value="" style="edgeStyle=none;endArrow=none;strokeWidth=3;strokeColor=#A29DC5;html=1;" parent="1" source="1516" target="1524" edge="1">
          <mxGeometry x="-1918" y="-752.75" width="100" height="100" as="geometry">
            <mxPoint x="-1918" y="-652.75" as="sourcePoint" />
            <mxPoint x="-1818" y="-752.75" as="targetPoint" />
          </mxGeometry>
        </mxCell>
        <mxCell id="1537" value="" style="edgeStyle=none;endArrow=none;strokeWidth=3;strokeColor=#A29DC5;html=1;" parent="1" source="1516" target="1525" edge="1">
          <mxGeometry x="-1918" y="-752.75" width="100" height="100" as="geometry">
            <mxPoint x="-1918" y="-652.75" as="sourcePoint" />
            <mxPoint x="-1818" y="-752.75" as="targetPoint" />
          </mxGeometry>
        </mxCell>
        <mxCell id="1538" value="" style="edgeStyle=none;endArrow=none;strokeWidth=3;strokeColor=#A29DC5;html=1;" parent="1" source="1516" target="1526" edge="1">
          <mxGeometry x="-1918" y="-752.75" width="100" height="100" as="geometry">
            <mxPoint x="-1918" y="-652.75" as="sourcePoint" />
            <mxPoint x="-1818" y="-752.75" as="targetPoint" />
          </mxGeometry>
        </mxCell>
        <mxCell id="1539" value="" style="edgeStyle=none;endArrow=none;strokeWidth=3;strokeColor=#A29DC5;html=1;" parent="1" source="1516" target="1527" edge="1">
          <mxGeometry x="-1918" y="-752.75" width="100" height="100" as="geometry">
            <mxPoint x="-1918" y="-652.75" as="sourcePoint" />
            <mxPoint x="-1818" y="-752.75" as="targetPoint" />
          </mxGeometry>
        </mxCell>
      </root>
    </mxGraphModel>
  </diagram>
</mxfile>
